<svg width="1116" height="87" viewBox="0 0 1116 87" fill="none" xmlns="http://www.w3.org/2000/svg">
<path d="M0.778568 84.8096L-1.74772 83.7052L-3.43573 87.5667H0.778568V84.8096ZM36.7755 2.46363V-0.293491H34.9717L34.2492 1.35928L36.7755 2.46363ZM64.0673 2.46363L66.5936 1.35928L65.8711 -0.293491H64.0673V2.46363ZM100.064 84.8096V87.5667H104.279L102.591 83.7052L100.064 84.8096ZM71.3608 84.8096L68.7872 85.7987L69.4668 87.5667H71.3608V84.8096ZM44.7748 15.639V12.8819H40.7614L42.2013 16.6281L44.7748 15.639ZM55.5974 15.639L58.171 16.6281L59.6109 12.8819H55.5974V15.639ZM29.0115 84.8096V87.5667H30.9055L31.585 85.7987L29.0115 84.8096ZM22.1885 70.4578L19.5886 69.5402L18.2916 73.215H22.1885V70.4578ZM29.2467 50.4595V47.7024H27.296L26.6468 49.5419L29.2467 50.4595ZM67.1259 50.4595L69.7258 49.5419L69.0766 47.7024H67.1259V50.4595ZM74.1841 70.4578V73.215H78.081L76.784 69.5402L74.1841 70.4578ZM3.30485 85.9139L39.3018 3.56797L34.2492 1.35928L-1.74772 83.7052L3.30485 85.9139ZM36.7755 5.22075H64.0673V-0.293491H36.7755V5.22075ZM61.541 3.56797L97.538 85.9139L102.591 83.7052L66.5936 1.35928L61.541 3.56797ZM100.064 82.0525H71.3608V87.5667H100.064V82.0525ZM73.9344 83.8204L47.3484 14.6498L42.2013 16.6281L68.7872 85.7987L73.9344 83.8204ZM44.7748 18.3961H55.5974V12.8819H44.7748V18.3961ZM53.0239 14.6498L26.4379 83.8204L31.585 85.7987L58.171 16.6281L53.0239 14.6498ZM29.0115 82.0525H0.778568V87.5667H29.0115V82.0525ZM24.7884 71.3755L31.8467 51.3772L26.6468 49.5419L19.5886 69.5402L24.7884 71.3755ZM29.2467 53.2167H67.1259V47.7024H29.2467V53.2167ZM64.5259 51.3772L71.5842 71.3755L76.784 69.5402L69.7258 49.5419L64.5259 51.3772ZM74.1841 67.7007H22.1885V73.215H74.1841V67.7007ZM196.247 84.8096L193.708 85.8834L194.42 87.5667H196.247V84.8096ZM161.427 2.46363V-0.293491H157.267L158.887 3.53744L161.427 2.46363ZM191.306 2.46363L193.859 1.42255L193.16 -0.293491H191.306V2.46363ZM219.657 71.9871V74.7442H223.759L222.21 70.9461L219.657 71.9871ZM201.894 71.9871L199.351 70.9203L197.747 74.7442H201.894V71.9871ZM231.068 2.46363V-0.293491H229.235L228.525 1.39679L231.068 2.46363ZM258.36 2.46363L260.899 3.53744L262.519 -0.293491H258.36V2.46363ZM223.539 84.8096V87.5667H225.367L226.078 85.8834L223.539 84.8096ZM198.787 83.7358L163.966 1.38982L158.887 3.53744L193.708 85.8834L198.787 83.7358ZM161.427 5.22075H191.306V-0.293491H161.427V5.22075ZM188.753 3.5047L217.104 73.0282L222.21 70.9461L193.859 1.42255L188.753 3.5047ZM219.657 69.23H201.894V74.7442H219.657V69.23ZM204.436 73.054L233.61 3.53047L228.525 1.39679L199.351 70.9203L204.436 73.054ZM231.068 5.22075H258.36V-0.293491H231.068V5.22075ZM255.82 1.38982L221 83.7358L226.078 85.8834L260.899 3.53744L255.82 1.38982ZM223.539 82.0525H196.247V87.5667H223.539V82.0525ZM331.704 84.8096H328.947V87.5667H331.704V84.8096ZM331.704 2.46363V-0.293491H328.947V2.46363H331.704ZM359.467 2.46363H362.224V-0.293491H359.467V2.46363ZM359.467 84.8096V87.5667H362.224V84.8096H359.467ZM334.462 84.8096V2.46363H328.947V84.8096H334.462ZM331.704 5.22075H359.467V-0.293491H331.704V5.22075ZM356.71 2.46363V84.8096H362.224V2.46363H356.71ZM359.467 82.0525H331.704V87.5667H359.467V82.0525ZM434.473 84.8096L431.947 83.7052L430.259 87.5667H434.473V84.8096ZM470.47 2.46363V-0.293491H468.666L467.944 1.35928L470.47 2.46363ZM497.762 2.46363L500.288 1.35928L499.566 -0.293491H497.762V2.46363ZM533.759 84.8096V87.5667H537.973L536.285 83.7052L533.759 84.8096ZM505.056 84.8096L502.482 85.7987L503.161 87.5667H505.056V84.8096ZM478.47 15.639V12.8819H474.456L475.896 16.6281L478.47 15.639ZM489.292 15.639L491.866 16.6281L493.306 12.8819H489.292V15.639ZM462.706 84.8096V87.5667H464.6L465.28 85.7987L462.706 84.8096ZM455.883 70.4578L453.283 69.5402L451.986 73.215H455.883V70.4578ZM462.941 50.4595V47.7024H460.991L460.342 49.5419L462.941 50.4595ZM500.821 50.4595L503.421 49.5419L502.771 47.7024H500.821V50.4595ZM507.879 70.4578V73.215H511.776L510.479 69.5402L507.879 70.4578ZM437 85.9139L472.997 3.56797L467.944 1.35928L431.947 83.7052L437 85.9139ZM470.47 5.22075H497.762V-0.293491H470.47V5.22075ZM495.236 3.56797L531.233 85.9139L536.285 83.7052L500.288 1.35928L495.236 3.56797ZM533.759 82.0525H505.056V87.5667H533.759V82.0525ZM507.629 83.8204L481.043 14.6498L475.896 16.6281L502.482 85.7987L507.629 83.8204ZM478.47 18.3961H489.292V12.8819H478.47V18.3961ZM486.719 14.6498L460.133 83.8204L465.28 85.7987L491.866 16.6281L486.719 14.6498ZM462.706 82.0525H434.473V87.5667H462.706V82.0525ZM458.483 71.3755L465.541 51.3772L460.342 49.5419L453.283 69.5402L458.483 71.3755ZM462.941 53.2167H500.821V47.7024H462.941V53.2167ZM498.221 51.3772L505.279 71.3755L510.479 69.5402L503.421 49.5419L498.221 51.3772ZM507.879 67.7007H455.883V73.215H507.879V67.7007ZM622.517 84.8096H619.76V87.5667H622.517V84.8096ZM622.517 23.9912H625.274V21.2341H622.517V23.9912ZM598.401 23.9912H595.644V26.7483H598.401V23.9912ZM598.401 2.46363V-0.293491H595.644V2.46363H598.401ZM674.395 2.46363H677.152V-0.293491H674.395V2.46363ZM674.395 23.9912V26.7483H677.152V23.9912H674.395ZM650.279 23.9912V21.2341H647.522V23.9912H650.279ZM650.279 84.8096V87.5667H653.036V84.8096H650.279ZM625.274 84.8096V23.9912H619.76V84.8096H625.274ZM622.517 21.2341H598.401V26.7483H622.517V21.2341ZM601.159 23.9912V2.46363H595.644V23.9912H601.159ZM598.401 5.22075H674.395V-0.293491H598.401V5.22075ZM671.638 2.46363V23.9912H677.152V2.46363H671.638ZM674.395 21.2341H650.279V26.7483H674.395V21.2341ZM647.522 23.9912V84.8096H653.036V23.9912H647.522ZM650.279 82.0525H622.517V87.5667H650.279V82.0525ZM752.188 84.8096H749.431V87.5667H752.188V84.8096ZM752.188 2.46363V-0.293491H749.431V2.46363H752.188ZM779.95 2.46363H782.707V-0.293491H779.95V2.46363ZM779.95 84.8096V87.5667H782.707V84.8096H779.95ZM754.945 84.8096V2.46363H749.431V84.8096H754.945ZM752.188 5.22075H779.95V-0.293491H752.188V5.22075ZM777.193 2.46363V84.8096H782.707V2.46363H777.193ZM779.95 82.0525H752.188V87.5667H779.95V82.0525ZM888.483 83.5156L887.515 86.0972L887.527 86.1015L888.483 83.5156ZM873.779 74.5751L871.887 76.5807L871.897 76.5902L871.907 76.5996L873.779 74.5751ZM864.015 60.8116L861.485 61.9068L861.491 61.9226L861.499 61.9383L864.015 60.8116ZM864.015 26.4616L861.499 25.3349L861.495 25.3437L861.491 25.3525L864.015 26.4616ZM873.779 12.8157L875.65 14.8402L875.661 14.8307L875.671 14.8212L873.779 12.8157ZM888.483 3.75764L887.527 1.1717L887.515 1.17607L888.483 3.75764ZM925.657 3.75764L924.689 6.33921L925.657 3.75764ZM940.361 12.8157L938.469 14.8212L938.479 14.8307L938.49 14.8402L940.361 12.8157ZM950.008 26.4616L947.477 27.5568L947.487 27.5797L947.498 27.6025L950.008 26.4616ZM950.008 60.8116L947.491 59.6849L947.484 59.7006L947.477 59.7164L950.008 60.8116ZM940.361 74.5751L942.233 76.5996L942.243 76.5902L942.253 76.5807L940.361 74.5751ZM925.657 83.5156L924.689 80.934L925.657 83.5156ZM914.246 62.8114L913.192 60.2638L913.176 60.2704L913.16 60.2773L914.246 62.8114ZM920.128 58.8118L918.135 56.906L918.133 56.9081L920.128 58.8118ZM924.127 52.3417L926.709 53.3098L926.714 53.2969L926.719 53.284L924.127 52.3417ZM924.127 35.0491L921.536 35.9913L921.541 36.0043L921.546 36.0172L924.127 35.0491ZM920.128 28.5791L918.092 30.4381L918.134 30.4844L918.178 30.5286L920.128 28.5791ZM914.246 24.4618L913.16 26.9959L913.176 27.0028L913.192 27.0094L914.246 24.4618ZM899.777 24.4618L898.722 21.9141L898.706 21.9208L898.69 21.9276L899.777 24.4618ZM893.895 28.5791L891.902 26.6733L891.9 26.6753L893.895 28.5791ZM890.013 35.0491L892.594 36.0172L892.599 36.0043L892.604 35.9913L890.013 35.0491ZM890.013 52.3417L887.422 53.284L887.426 53.2969L887.431 53.3098L890.013 52.3417ZM893.895 58.8118L891.859 60.6708L891.901 60.7171L891.945 60.7614L893.895 58.8118ZM899.777 62.8114L898.69 65.3456L898.706 65.3524L898.722 65.3591L899.777 62.8114ZM907.07 83.9346C900.7 83.9346 894.832 82.9239 889.44 80.9296L887.527 86.1015C893.585 88.3422 900.108 89.4489 907.07 89.4489V83.9346ZM889.451 80.934C884.117 78.9336 879.528 76.1355 875.65 72.5507L871.907 76.5996C876.343 80.7004 881.556 83.8625 887.515 86.0971L889.451 80.934ZM875.671 72.5696C871.78 68.8993 868.737 64.6107 866.531 59.6849L861.499 61.9383C863.998 67.5214 867.464 72.4085 871.887 76.5807L875.671 72.5696ZM866.545 59.7164C864.432 54.8353 863.361 49.4867 863.361 43.6366H857.846C857.846 50.1776 859.049 56.279 861.485 61.9068L866.545 59.7164ZM863.361 43.6366C863.361 37.7024 864.434 32.3606 866.539 27.5707L861.491 25.3525C859.047 30.9147 857.846 37.0229 857.846 43.6366H863.361ZM866.531 27.5883C868.735 22.6676 871.772 18.4259 875.65 14.8402L871.907 10.7912C867.473 14.8911 864.001 19.7466 861.499 25.3349L866.531 27.5883ZM875.671 14.8212C879.546 11.1653 884.129 8.33521 889.451 6.33921L887.515 1.17607C881.545 3.41499 876.325 6.62365 871.887 10.8102L875.671 14.8212ZM889.44 6.34355C894.832 4.3493 900.7 3.33855 907.07 3.33855V-2.17568C900.108 -2.17568 893.585 -1.06896 887.527 1.17173L889.44 6.34355ZM907.07 3.33855C913.523 3.33855 919.386 4.35075 924.689 6.33921L926.625 1.17607C920.634 -1.07041 914.106 -2.17568 907.07 -2.17568V3.33855ZM924.689 6.33921C930.011 8.33521 934.594 11.1653 938.469 14.8212L942.253 10.8102C937.816 6.62365 932.595 3.41499 926.625 1.17607L924.689 6.33921ZM938.49 14.8402C942.361 18.4194 945.354 22.6504 947.477 27.5568L952.538 25.3664C950.113 19.7639 946.675 14.8976 942.233 10.7912L938.49 14.8402ZM947.498 27.6025C949.671 32.3846 950.78 37.7151 950.78 43.6366H956.294C956.294 37.0101 955.049 30.8906 952.518 25.3207L947.498 27.6025ZM950.78 43.6366C950.78 49.4738 949.673 54.8112 947.491 59.6849L952.524 61.9383C955.047 56.3031 956.294 50.1905 956.294 43.6366H950.78ZM947.477 59.7164C945.351 64.6279 942.353 68.9059 938.469 72.5696L942.253 76.5807C946.683 72.4019 950.115 67.5042 952.538 61.9068L947.477 59.7164ZM938.49 72.5507C934.612 76.1355 930.023 78.9336 924.689 80.934L926.625 86.0971C932.584 83.8625 937.797 80.7004 942.233 76.5996L938.49 72.5507ZM924.689 80.934C919.386 82.9225 913.523 83.9346 907.07 83.9346V89.4489C914.106 89.4489 920.634 88.3436 926.625 86.0971L924.689 80.934ZM907.07 66.9802C910 66.9802 912.765 66.4457 915.332 65.3456L913.16 60.2773C911.335 61.0594 909.316 61.466 907.07 61.466V66.9802ZM915.3 65.3591C917.918 64.2759 920.202 62.7276 922.122 60.7155L918.133 56.9081C916.76 58.3467 915.123 59.4647 913.192 60.2638L915.3 65.3591ZM922.12 60.7176C924.122 58.6249 925.647 56.1425 926.709 53.3098L921.546 51.3737C920.726 53.5601 919.584 55.3912 918.135 56.906L922.12 60.7176ZM926.719 53.284C927.786 50.348 928.296 47.1205 928.296 43.6366H922.782C922.782 46.5835 922.351 49.1594 921.536 51.3995L926.719 53.284ZM928.296 43.6366C928.296 40.1549 927.787 36.9551 926.709 34.081L921.546 36.0172C922.35 38.1623 922.782 40.6875 922.782 43.6366H928.296ZM926.719 34.1069C925.658 31.1891 924.122 28.6743 922.077 26.6295L918.178 30.5286C919.584 31.9345 920.715 33.7331 921.536 35.9913L926.719 34.1069ZM922.164 26.72C920.242 24.6151 917.945 23.0087 915.3 21.9141L913.192 27.0094C915.095 27.797 916.72 28.9355 918.092 30.4381L922.164 26.72ZM915.332 21.9276C912.765 20.8275 910 20.293 907.07 20.293V25.8072C909.316 25.8072 911.335 26.2138 913.16 26.9959L915.332 21.9276ZM907.07 20.293C904.139 20.293 901.348 20.8277 898.722 21.9141L900.831 27.0094C902.754 26.2137 904.825 25.8072 907.07 25.8072V20.293ZM898.69 21.9276C896.138 23.0215 893.873 24.6134 891.902 26.6733L895.887 30.4848C897.367 28.9372 899.023 27.7842 900.863 26.996L898.69 21.9276ZM891.9 26.6753C889.953 28.7159 888.473 31.2155 887.422 34.1069L892.604 35.9913C893.435 33.7066 894.543 31.8929 895.889 30.4828L891.9 26.6753ZM887.431 34.081C886.353 36.9551 885.844 40.1549 885.844 43.6366H891.358C891.358 40.6875 891.79 38.1622 892.594 36.0172L887.431 34.081ZM885.844 43.6366C885.844 47.1205 886.354 50.348 887.422 53.284L892.604 51.3995C891.789 49.1594 891.358 46.5835 891.358 43.6366H885.844ZM887.431 53.3098C888.484 56.1163 889.953 58.5834 891.859 60.6708L895.931 56.9527C894.543 55.4327 893.424 53.5863 892.594 51.3736L887.431 53.3098ZM891.945 60.7614C893.913 62.7293 896.165 64.2634 898.69 65.3456L900.863 60.2773C898.996 59.4773 897.327 58.3449 895.844 56.8622L891.945 60.7614ZM898.722 65.3591C901.348 66.4455 904.139 66.9802 907.07 66.9802V61.466C904.825 61.466 902.754 61.0595 900.831 60.2638L898.722 65.3591ZM1034.2 84.8096H1031.44V87.5667H1034.2V84.8096ZM1034.2 2.46363V-0.293491H1031.44V2.46363H1034.2ZM1057.02 2.46363L1059.13 0.695633L1058.31 -0.293491H1057.02V2.46363ZM1098.9 52.577V55.3341H1104.79L1101.01 50.809L1098.9 52.577ZM1088.31 52.577H1085.55V55.3341H1088.31V52.577ZM1088.31 2.46363V-0.293491H1085.55V2.46363H1088.31ZM1115.36 2.46363H1118.12V-0.293491H1115.36V2.46363ZM1115.36 84.8096V87.5667H1118.12V84.8096H1115.36ZM1092.54 84.8096L1090.43 86.5776L1091.25 87.5667H1092.54V84.8096ZM1050.66 34.6962V31.9391H1044.77L1048.55 36.4642L1050.66 34.6962ZM1061.25 34.6962H1064.01V31.9391H1061.25V34.6962ZM1061.25 84.8096V87.5667H1064.01V84.8096H1061.25ZM1036.95 84.8096V2.46363H1031.44V84.8096H1036.95ZM1034.2 5.22075H1057.02V-0.293491H1034.2V5.22075ZM1054.9 4.23162L1096.78 54.345L1101.01 50.809L1059.13 0.695633L1054.9 4.23162ZM1098.9 49.8199H1088.31V55.3341H1098.9V49.8199ZM1091.07 52.577V2.46363H1085.55V52.577H1091.07ZM1088.31 5.22075H1115.36V-0.293491H1088.31V5.22075ZM1112.61 2.46363V84.8096H1118.12V2.46363H1112.61ZM1115.36 82.0525H1092.54V87.5667H1115.36V82.0525ZM1094.66 83.0416L1052.78 32.9282L1048.55 36.4642L1090.43 86.5776L1094.66 83.0416ZM1050.66 37.4533H1061.25V31.9391H1050.66V37.4533ZM1058.49 34.6962V84.8096H1064.01V34.6962H1058.49ZM1061.25 82.0525H1034.2V87.5667H1061.25V82.0525Z" fill="white" fill-opacity="0.08"/>
</svg>
