<svg width="71" height="70" viewBox="0 0 71 70" fill="none" xmlns="http://www.w3.org/2000/svg">
<rect width="71" height="70" fill="#F5F5F5"/>
<g id="01_Aviation landing page" clip-path="url(#clip0_2_3)">
<rect width="1440" height="5704" transform="translate(-838 -1205)" fill="white"/>
<g id="Group 1261152709">
<g id="Frame 1261154469" filter="url(#filter0_d_2_3)">
<path d="M-718 -474H462C473.046 -474 482 -465.046 482 -454V-278C482 -266.954 473.046 -258 462 -258H-698C-709.046 -258 -718 -266.954 -718 -278V-474Z" fill="white" shape-rendering="crispEdges"/>
</g>
</g>
<g id="Frame 1261154519">
<g id="Frame 1261154493">
<g id="Group 1261152711">
<g id="Frame 1261154490" filter="url(#filter1_d_2_3)">
<rect x="-411.878" y="-58" width="281.633" height="380" rx="140.816" fill="white" shape-rendering="crispEdges"/>
</g>
<g id="Frame 1261154491" filter="url(#filter2_d_2_3)">
<rect x="-105.755" y="-28" width="281.633" height="380" rx="140.816" fill="white" shape-rendering="crispEdges"/>
<g id="Frame 1261154488">
<g id="lock (1) 1">
<g id="Group">
<path id="Vector" d="M48.7129 43.2668C49.2649 43.2668 49.7129 42.8188 49.7129 42.2668V33.5468C49.7115 32.4802 48.8462 31.6148 47.7795 31.6135H45.5275V24.8002C45.5222 19.0215 40.8395 14.3388 35.0609 14.3335C29.2822 14.3388 24.5995 19.0215 24.5942 24.8002V31.6068H22.3422C21.2755 31.6082 20.4102 32.4735 20.4089 33.5402V48.7922C20.4115 51.4828 22.5929 53.6642 25.2835 53.6668H44.8382C47.5289 53.6642 49.7102 51.4828 49.7129 48.7922C49.7129 48.2402 49.2649 47.7922 48.7129 47.7922C48.1609 47.7922 47.7129 48.2402 47.7129 48.7922C47.7102 50.3788 46.4249 51.6642 44.8382 51.6668H25.2835C23.6969 51.6642 22.4115 50.3788 22.4089 48.7922L22.3422 33.6068H25.5942C26.1462 33.6068 26.5942 33.1588 26.5942 32.6068V24.8002C26.9835 13.5988 43.1382 13.5975 43.5275 24.8002V31.6068H32.3942C31.8422 31.6068 31.3942 32.0548 31.3942 32.6068C31.3942 33.1588 31.8422 33.6068 32.3942 33.6068C34.9502 33.5935 45.3849 33.5562 47.7129 33.5402V42.2668C47.7129 42.8188 48.1609 43.2668 48.7129 43.2668Z" fill="#030522"/>
<path id="Vector_2" d="M32.8561 42.6359C32.9055 45.5346 37.2175 45.5346 37.2668 42.6359C37.2175 39.7372 32.9055 39.7372 32.8561 42.6359Z" fill="#030522"/>
</g>
</g>
</g>
<circle id="Ellipse 745" cx="35.2449" cy="35" r="35" fill="#313EF7" fill-opacity="0.05"/>
</g>
<g id="Frame 1261154492" filter="url(#filter3_d_2_3)">
<rect x="200.367" y="-58" width="281.633" height="380" rx="140.816" fill="white" shape-rendering="crispEdges"/>
</g>
</g>
</g>
</g>
</g>
<defs>
<filter id="filter0_d_2_3" x="-918" y="-574" width="1600" height="616" filterUnits="userSpaceOnUse" color-interpolation-filters="sRGB">
<feFlood flood-opacity="0" result="BackgroundImageFix"/>
<feColorMatrix in="SourceAlpha" type="matrix" values="0 0 0 0 0 0 0 0 0 0 0 0 0 0 0 0 0 0 127 0" result="hardAlpha"/>
<feOffset dy="100"/>
<feGaussianBlur stdDeviation="100"/>
<feComposite in2="hardAlpha" operator="out"/>
<feColorMatrix type="matrix" values="0 0 0 0 0.00392157 0 0 0 0 0.0901961 0 0 0 0 0.211765 0 0 0 0.1 0"/>
<feBlend mode="normal" in2="BackgroundImageFix" result="effect1_dropShadow_2_3"/>
<feBlend mode="normal" in="SourceGraphic" in2="effect1_dropShadow_2_3" result="shape"/>
</filter>
<filter id="filter1_d_2_3" x="-611.878" y="-158" width="681.633" height="780" filterUnits="userSpaceOnUse" color-interpolation-filters="sRGB">
<feFlood flood-opacity="0" result="BackgroundImageFix"/>
<feColorMatrix in="SourceAlpha" type="matrix" values="0 0 0 0 0 0 0 0 0 0 0 0 0 0 0 0 0 0 127 0" result="hardAlpha"/>
<feOffset dy="100"/>
<feGaussianBlur stdDeviation="100"/>
<feComposite in2="hardAlpha" operator="out"/>
<feColorMatrix type="matrix" values="0 0 0 0 0.00392157 0 0 0 0 0.0901961 0 0 0 0 0.211765 0 0 0 0.1 0"/>
<feBlend mode="normal" in2="BackgroundImageFix" result="effect1_dropShadow_2_3"/>
<feBlend mode="normal" in="SourceGraphic" in2="effect1_dropShadow_2_3" result="shape"/>
</filter>
<filter id="filter2_d_2_3" x="-305.755" y="-128" width="681.633" height="780" filterUnits="userSpaceOnUse" color-interpolation-filters="sRGB">
<feFlood flood-opacity="0" result="BackgroundImageFix"/>
<feColorMatrix in="SourceAlpha" type="matrix" values="0 0 0 0 0 0 0 0 0 0 0 0 0 0 0 0 0 0 127 0" result="hardAlpha"/>
<feOffset dy="100"/>
<feGaussianBlur stdDeviation="100"/>
<feComposite in2="hardAlpha" operator="out"/>
<feColorMatrix type="matrix" values="0 0 0 0 0.00392157 0 0 0 0 0.0901961 0 0 0 0 0.211765 0 0 0 0.1 0"/>
<feBlend mode="normal" in2="BackgroundImageFix" result="effect1_dropShadow_2_3"/>
<feBlend mode="normal" in="SourceGraphic" in2="effect1_dropShadow_2_3" result="shape"/>
</filter>
<filter id="filter3_d_2_3" x="0.367371" y="-158" width="681.633" height="780" filterUnits="userSpaceOnUse" color-interpolation-filters="sRGB">
<feFlood flood-opacity="0" result="BackgroundImageFix"/>
<feColorMatrix in="SourceAlpha" type="matrix" values="0 0 0 0 0 0 0 0 0 0 0 0 0 0 0 0 0 0 127 0" result="hardAlpha"/>
<feOffset dy="100"/>
<feGaussianBlur stdDeviation="100"/>
<feComposite in2="hardAlpha" operator="out"/>
<feColorMatrix type="matrix" values="0 0 0 0 0.00392157 0 0 0 0 0.0901961 0 0 0 0 0.211765 0 0 0 0.1 0"/>
<feBlend mode="normal" in2="BackgroundImageFix" result="effect1_dropShadow_2_3"/>
<feBlend mode="normal" in="SourceGraphic" in2="effect1_dropShadow_2_3" result="shape"/>
</filter>
<clipPath id="clip0_2_3">
<rect width="1440" height="5704" fill="white" transform="translate(-838 -1205)"/>
</clipPath>
</defs>
</svg>
